<svg width="24" height="24" viewBox="0 0 24 24" fill="none" xmlns="http://www.w3.org/2000/svg">
<path d="M4.70508 20.5312V18.4805L6.52148 18.1289V5.88281L4.70508 5.53125V3.46875H12.2871C14.2949 3.46875 15.8613 3.85938 16.9863 4.64062C18.1113 5.42188 18.6738 6.58984 18.6738 8.14453C18.6738 8.93359 18.4629 9.64062 18.041 10.2656C17.627 10.8828 17.0215 11.3477 16.2246 11.6602C16.9043 11.8086 17.4707 12.0703 17.9238 12.4453C18.3848 12.8203 18.7285 13.2773 18.9551 13.8164C19.1816 14.3477 19.2949 14.9297 19.2949 15.5625C19.2949 17.1953 18.7559 18.4336 17.6777 19.2773C16.5996 20.1133 15.0723 20.5312 13.0957 20.5312H4.70508ZM9.94336 17.9062H13.0957C14.002 17.9062 14.6934 17.7109 15.1699 17.3203C15.6465 16.9219 15.8848 16.3359 15.8848 15.5625C15.8848 15 15.7949 14.5273 15.6152 14.1445C15.4355 13.7617 15.1582 13.4727 14.7832 13.2773C14.416 13.082 13.9395 12.9844 13.3535 12.9844H9.94336V17.9062ZM9.94336 10.6172H12.4043C13.3184 10.6172 14.0215 10.4297 14.5137 10.0547C15.0059 9.67969 15.252 9.13281 15.252 8.41406C15.252 7.625 15.002 7.04297 14.502 6.66797C14.0098 6.29297 13.2715 6.10547 12.2871 6.10547H9.94336V10.6172Z" fill="black"/>
</svg>
