<svg width="158" height="157" viewBox="0 0 158 157" fill="none" xmlns="http://www.w3.org/2000/svg">
<path d="M79.0001 0.342067C35.8213 0.342067 0.741455 35.4219 0.741455 78.6007C0.741455 116.679 28.0135 148.446 64.1043 155.414C65.0708 155.714 66.1216 155.589 66.99 155.068C67.8597 154.547 68.4652 153.681 68.6562 152.686C68.8473 151.691 68.6054 150.661 67.9912 149.856C67.3759 149.051 66.4478 148.545 65.4379 148.467C32.6449 142.133 7.85559 113.288 7.85559 78.5991C7.85559 39.2665 39.6672 7.4549 78.9998 7.4549C118.332 7.4549 150.144 39.2665 150.144 78.5991C150.144 117.932 118.332 149.743 78.9998 149.743C77.0606 149.779 75.5087 151.361 75.5087 153.3C75.5087 155.239 77.0607 156.821 78.9998 156.857C122.179 156.857 157.258 121.777 157.258 78.5985C157.258 35.4197 122.179 0.339844 78.9998 0.339844L79.0001 0.342067ZM116.684 48.3072C115.755 48.3445 114.878 48.7427 114.239 49.4189L68.3287 96.6059L48.2089 75.9302C47.555 75.2392 46.6531 74.8372 45.7028 74.8161C44.7524 74.7951 43.8331 75.1548 43.1495 75.8161C42.4659 76.4774 42.0751 77.3843 42.0651 78.3346C42.0552 79.2862 42.4261 80.2006 43.0949 80.8767L65.7727 104.165C66.4427 104.857 67.3645 105.249 68.3285 105.249C69.2925 105.249 70.2155 104.857 70.8855 104.165L119.352 54.3641C120.381 53.3257 120.67 51.7649 120.081 50.4273C119.491 49.0899 118.144 48.2487 116.684 48.3058L116.684 48.3072Z" fill="#00A83F"/>
</svg>
