<svg width="24" height="25" viewBox="0 0 24 25" fill="none" xmlns="http://www.w3.org/2000/svg">
<path fill-rule="evenodd" clip-rule="evenodd" d="M6.06976 5.94482C5.5455 5.94482 5.0427 6.15309 4.67199 6.5238C4.30128 6.89451 4.09302 7.3973 4.09302 7.92157V17.8053C4.09302 18.3296 4.30128 18.8324 4.67199 19.2031C5.0427 19.5738 5.5455 19.782 6.06976 19.782H17.9302C18.4545 19.782 18.9573 19.5738 19.328 19.2031C19.6987 18.8324 19.907 18.3296 19.907 17.8053V7.92157C19.907 7.3973 19.6987 6.89451 19.328 6.5238C18.9573 6.15309 18.4545 5.94482 17.9302 5.94482H6.06976ZM17.9302 17.8053H6.06976L10.0233 9.89832L12.9884 15.8286L14.9651 11.8751L17.9302 17.8053Z" fill="black"/>
</svg>
