<svg width="24" height="24" viewBox="0 0 24 24" fill="none" xmlns="http://www.w3.org/2000/svg">
<path d="M9.76014 18.505C9.76014 18.3089 9.76769 18.1053 9.78277 17.8941C9.81294 17.6829 9.85065 17.434 9.8959 17.1474C9.95624 16.8458 10.0241 16.4837 10.0995 16.0614L11.0046 11.0157C11.0498 10.8045 11.0197 10.6386 10.9141 10.5179C10.8236 10.3972 10.6652 10.2992 10.4389 10.2238C10.2278 10.1484 9.95624 10.0956 9.62439 10.0654L9.30762 10.0201L9.53388 8.82094H14.0818L12.7242 16.5139C12.6789 16.8307 12.6337 17.1097 12.5884 17.3511C12.5583 17.5924 12.5281 17.7961 12.4979 17.962C12.4828 18.1279 12.4753 18.2712 12.4753 18.3919C12.4753 18.588 12.5356 18.7388 12.6563 18.8444C12.777 18.9349 12.9505 18.9802 13.1767 18.9802C13.3879 18.9802 13.5915 18.9575 13.7876 18.9123C13.9837 18.852 14.1647 18.7916 14.3307 18.7313C14.4966 18.6559 14.6173 18.6031 14.6927 18.5729L14.4438 19.8852C14.293 19.9908 14.0969 20.0964 13.8555 20.202C13.6292 20.3076 13.3728 20.3905 13.0862 20.4509C12.7996 20.5112 12.4904 20.5414 12.1585 20.5414C11.706 20.5414 11.2912 20.466 10.9141 20.3151C10.5521 20.1643 10.2655 19.938 10.0543 19.6363C9.85819 19.3347 9.76014 18.9575 9.76014 18.505ZM11.2761 4.99709C11.2761 4.51439 11.4345 4.13729 11.7513 3.86577C12.068 3.59425 12.4828 3.4585 12.9957 3.4585C13.4935 3.4585 13.8932 3.59425 14.1949 3.86577C14.4966 4.1222 14.6474 4.48422 14.6474 4.95183C14.6474 5.43453 14.4891 5.81918 14.1723 6.10578C13.8555 6.37729 13.4407 6.51305 12.9278 6.51305C12.4451 6.51305 12.0454 6.37729 11.7286 6.10578C11.427 5.83426 11.2761 5.4647 11.2761 4.99709Z" fill="black"/>
</svg>
