<svg width="24" height="24" viewBox="0 0 24 24" fill="none" xmlns="http://www.w3.org/2000/svg">
<path d="M13.5123 10.4875C12.908 9.88332 12.0885 9.54393 11.234 9.54393C10.3795 9.54393 9.55994 9.88332 8.95562 10.4875L5.73307 13.71C5.42529 14.0073 5.17979 14.3629 5.0109 14.756C4.84201 15.1492 4.75311 15.5721 4.74939 15.9999C4.74567 16.4278 4.82721 16.8522 4.98924 17.2482C5.15127 17.6442 5.39056 18.0041 5.69313 18.3066C5.9957 18.6092 6.35551 18.8485 6.75155 19.0105C7.14759 19.1725 7.57193 19.2541 7.99982 19.2504C8.42771 19.2466 8.85057 19.1578 9.24373 18.9889C9.6369 18.82 9.99249 18.5745 10.2898 18.2667L11.1776 17.3797M10.5669 13.4329C11.1712 14.037 11.9907 14.3764 12.8452 14.3764C13.6997 14.3764 14.5193 14.037 15.1236 13.4329L18.3461 10.2103C18.9331 9.60253 19.258 8.78851 19.2506 7.94357C19.2433 7.09863 18.9044 6.29037 18.3069 5.69289C17.7094 5.0954 16.9011 4.75649 16.0562 4.74915C15.2112 4.7418 14.3972 5.06662 13.7894 5.65363L12.9032 6.53983" stroke="black" stroke-width="2" stroke-linecap="round" stroke-linejoin="round"/>
</svg>
