<svg width="116" height="36" viewBox="0 0 116 36" fill="none" xmlns="http://www.w3.org/2000/svg">
<path d="M14.2576 20.7256H5.60993L5.5638 15.4217H12.5742C13.8348 15.4217 14.8418 15.2833 15.5951 15.0066C16.3484 14.7145 16.8942 14.2917 17.2324 13.7383C17.586 13.1848 17.7628 12.493 17.7628 11.6629C17.7628 10.7097 17.586 9.94101 17.2324 9.35681C16.8788 8.77262 16.3177 8.34984 15.549 8.08849C14.7957 7.81177 13.8194 7.6734 12.6203 7.6734H8.6539V35H0.559692V1.42403H12.6203C14.6957 1.42403 16.5483 1.6162 18.1779 2.00054C19.8075 2.3695 21.1911 2.93833 22.3287 3.70701C23.4818 4.47569 24.3581 5.44423 24.9576 6.61262C25.5572 7.76564 25.857 9.12621 25.857 10.6943C25.857 12.0626 25.5649 13.3463 24.9807 14.5454C24.3965 15.7446 23.4203 16.7208 22.052 17.4741C20.6991 18.212 18.8466 18.5964 16.4944 18.6271L14.2576 20.7256ZM13.9347 35H3.64979L6.41704 28.7737H13.9347C15.0416 28.7737 15.9256 28.6046 16.5867 28.2664C17.2631 27.9128 17.7474 27.4516 18.0395 26.8827C18.347 26.2985 18.5007 25.6528 18.5007 24.9457C18.5007 24.0847 18.3547 23.3391 18.0626 22.7088C17.7858 22.0785 17.34 21.5942 16.7251 21.256C16.1101 20.9024 15.2876 20.7256 14.2576 20.7256H7.45476L7.50088 15.4217H15.6412L17.5322 17.5433C19.7767 17.451 21.5524 17.7662 22.8591 18.4887C24.1813 19.2113 25.1267 20.1645 25.6956 21.3482C26.2644 22.532 26.5488 23.7696 26.5488 25.061C26.5488 27.2594 26.0722 29.0965 25.119 30.5724C24.1813 32.0483 22.7746 33.1552 20.899 33.8931C19.0234 34.631 16.702 35 13.9347 35Z" fill="#00A2FF"/>
<path d="M53.2297 28.7737V35H36.2572V28.7737H53.2297ZM39.1398 1.42403V35H31.0456V1.42403H39.1398Z" fill="#00A2FF"/>
<path d="M83.5772 17.5433V18.9038C83.5772 21.4712 83.2159 23.7773 82.4934 25.822C81.7862 27.8513 80.7792 29.5885 79.4725 31.0336C78.1657 32.4634 76.6207 33.5626 74.8373 34.3313C73.054 35.0846 71.0862 35.4612 68.9339 35.4612C66.7662 35.4612 64.783 35.0846 62.9843 34.3313C61.2009 33.5626 59.6482 32.4634 58.3261 31.0336C57.0193 29.5885 56.0046 27.8513 55.2821 25.822C54.5749 23.7773 54.2213 21.4712 54.2213 18.9038V17.5433C54.2213 14.9759 54.5749 12.6698 55.2821 10.6251C56.0046 8.58045 57.0116 6.84323 58.303 5.41348C59.6098 3.96836 61.1548 2.86915 62.9381 2.11584C64.7369 1.34716 66.7201 0.962819 68.8877 0.962819C71.04 0.962819 73.0079 1.34716 74.7912 2.11584C76.5899 2.86915 78.1427 3.96836 79.4494 5.41348C80.7562 6.84323 81.7708 8.58045 82.4934 10.6251C83.2159 12.6698 83.5772 14.9759 83.5772 17.5433ZM75.3677 18.9038V17.4971C75.3677 15.8368 75.2217 14.3763 74.9296 13.1157C74.6528 11.8397 74.2378 10.7712 73.6843 9.91026C73.1309 9.04934 72.4467 8.40365 71.6319 7.97319C70.8325 7.52735 69.9178 7.30444 68.8877 7.30444C67.8116 7.30444 66.8738 7.52735 66.0744 7.97319C65.2749 8.40365 64.6062 9.04934 64.0681 9.91026C63.53 10.7712 63.1226 11.8397 62.8459 13.1157C62.5846 14.3763 62.4539 15.8368 62.4539 17.4971V18.9038C62.4539 20.5488 62.5846 22.0093 62.8459 23.2853C63.1226 24.5459 63.53 25.6144 64.0681 26.4907C64.6216 27.367 65.298 28.0281 66.0974 28.4739C66.9122 28.9197 67.8577 29.1427 68.9339 29.1427C69.9639 29.1427 70.8786 28.9197 71.678 28.4739C72.4775 28.0281 73.1462 27.367 73.6843 26.4907C74.2378 25.6144 74.6528 24.5459 74.9296 23.2853C75.2217 22.0093 75.3677 20.5488 75.3677 18.9038Z" fill="#00A2FF"/>
<path d="M115.239 17.059V30.8491C114.67 31.4794 113.794 32.1559 112.61 32.8784C111.442 33.5856 109.966 34.1929 108.183 34.7002C106.399 35.2076 104.301 35.4612 101.887 35.4612C99.658 35.4612 97.6364 35.1076 95.8223 34.4004C94.0082 33.6779 92.4478 32.6248 91.141 31.2412C89.8497 29.8422 88.8504 28.1357 88.1432 26.1217C87.4514 24.0924 87.1055 21.771 87.1055 19.1575V17.2896C87.1055 14.6761 87.4591 12.3547 88.1663 10.3254C88.8734 8.29603 89.865 6.58956 91.141 5.20594C92.4324 3.80694 93.9467 2.74616 95.684 2.0236C97.4365 1.30104 99.3582 0.939758 101.449 0.939758C104.539 0.939758 107.053 1.43171 108.99 2.41563C110.927 3.38416 112.395 4.72935 113.394 6.4512C114.394 8.15767 115.001 10.1332 115.216 12.3777H107.445C107.291 11.2708 106.999 10.333 106.568 9.56436C106.153 8.7803 105.554 8.18842 104.77 7.7887C103.986 7.37362 102.971 7.16607 101.726 7.16607C100.757 7.16607 99.8733 7.37362 99.0738 7.7887C98.2898 8.20379 97.621 8.83411 97.0676 9.67966C96.5141 10.5098 96.0837 11.5552 95.7762 12.8159C95.4841 14.0765 95.338 15.5524 95.338 17.2435V19.1575C95.338 20.8332 95.4764 22.3014 95.7531 23.562C96.0452 24.8227 96.4757 25.8758 97.0445 26.7213C97.6287 27.5515 98.3666 28.1818 99.2583 28.6123C100.165 29.0274 101.234 29.2349 102.464 29.2349C103.325 29.2349 104.063 29.1657 104.678 29.0274C105.292 28.8736 105.8 28.6891 106.2 28.4739C106.615 28.2433 106.93 28.0281 107.145 27.8282V22.6166H101.518V17.059H115.239Z" fill="#00A2FF"/>
</svg>
